<?xml version="1.0" encoding="UTF-8" standalone="no"?>
<!DOCTYPE svg PUBLIC "-//W3C//DTD SVG 1.1//EN" "http://www.w3.org/Graphics/SVG/1.1/DTD/svg11.dtd">
<svg xmlns="http://www.w3.org/2000/svg" version="1.1" viewBox="0 0 462 540">
<g stroke-width="2.00" fill="none" stroke-linecap="butt">
<path stroke="#121113" vector-effect="non-scaling-stroke" d="
  M 284.75 33.96
  Q 283.71 33.00 282.70 33.32
  Q 281.10 33.83 279.60 33.08
  Q 275.77 31.17 272.92 32.92
  Q 271.88 33.56 266.50 34.46"
/>
<path stroke="#121113" vector-effect="non-scaling-stroke" d="
  M 435.50 255.04
  Q 431.88 257.32 428.30 261.13
  Q 426.64 262.90 424.24 263.27
  C 423.12 263.45 421.18 266.15 420.04 266.98
  Q 414.19 271.24 409.59 276.79
  Q 406.71 280.26 404.14 282.49
  Q 397.40 288.33 391.24 294.78
  Q 390.97 295.06 390.40 295.25
  C 387.64 296.17 384.11 302.80 381.64 304.93
  C 377.56 308.45 375.26 312.56 370.90 316.48
  A 1.12 0.67 -31.9 0 0 370.49 317.27
  L 370.54 317.75"
/>
<path stroke="#854c2d" vector-effect="non-scaling-stroke" d="
  M 213.30 369.90
  Q 215.37 371.17 217.66 368.91
  Q 263.67 323.54 310.58 277.89
  Q 312.16 276.35 310.91 274.53
  Q 310.39 273.77 309.07 272.16
  Q 267.32 221.42 225.72 170.97
  Q 224.37 169.33 222.81 170.79
  L 168.79 221.25"
/>
</g>
<path fill="#0b0b0a" d="
  M 284.75 33.96
  Q 283.71 33.00 282.70 33.32
  Q 281.10 33.83 279.60 33.08
  Q 275.77 31.17 272.92 32.92
  Q 271.88 33.56 266.50 34.46
  L 275.82 25.80
  A 1.54 1.47 -41.4 0 1 278.00 25.88
  L 284.75 33.96
  Z"
/>
<path fill="#18171c" d="
  M 284.75 33.96
  L 451.26 238.47
  A 1.11 1.10 -41.6 0 1 451.17 239.97
  L 435.50 255.04
  Q 431.88 257.32 428.30 261.13
  Q 426.64 262.90 424.24 263.27
  C 423.12 263.45 421.18 266.15 420.04 266.98
  Q 414.19 271.24 409.59 276.79
  Q 406.71 280.26 404.14 282.49
  Q 397.40 288.33 391.24 294.78
  Q 390.97 295.06 390.40 295.25
  C 387.64 296.17 384.11 302.80 381.64 304.93
  C 377.56 308.45 375.26 312.56 370.90 316.48
  A 1.12 0.67 -31.9 0 0 370.49 317.27
  L 370.54 317.75
  Q 311.97 374.80 290.24 395.50
  Q 285.20 400.31 283.75 401.83
  A 1.50 1.39 70.2 0 0 283.38 402.70
  Q 282.69 411.73 282.83 420.72
  C 283.31 452.77 283.00 484.88 283.00 516.94
  A 0.31 0.31 -0.0 0 1 282.69 517.25
  L 15.81 517.25
  A 0.31 0.31 -0.0 0 1 15.50 516.94
  L 15.50 268.31
  A 0.58 0.57 -4.0 0 1 16.00 267.74
  Q 21.50 267.00 25.25 267.00
  Q 50.97 266.99 76.52 267.02
  Q 78.99 267.02 79.01 269.49
  Q 79.44 309.25 79.20 349.01
  C 79.16 354.60 78.74 361.64 79.51 368.03
  Q 79.78 370.23 81.98 370.22
  L 213.30 369.90
  Q 215.37 371.17 217.66 368.91
  Q 263.67 323.54 310.58 277.89
  Q 312.16 276.35 310.91 274.53
  Q 310.39 273.77 309.07 272.16
  Q 267.32 221.42 225.72 170.97
  Q 224.37 169.33 222.81 170.79
  L 168.79 221.25
  Q 168.77 220.95 168.69 220.95
  Q 119.42 221.72 98.18 221.17
  C 94.82 221.08 86.12 208.79 83.97 205.85
  Q 82.83 204.31 84.24 203.01
  L 266.50 34.46
  Q 271.88 33.56 272.92 32.92
  Q 275.77 31.17 279.60 33.08
  Q 281.10 33.83 282.70 33.32
  Q 283.71 33.00 284.75 33.96
  Z"
/>
<path fill="#f2813d" d="
  M 213.30 369.90
  Q 212.89 367.07 211.70 365.55
  Q 171.02 313.76 128.78 263.41
  Q 127.05 261.35 129.06 259.57
  Q 149.74 241.24 168.79 221.25
  L 222.81 170.79
  Q 224.37 169.33 225.72 170.97
  Q 267.32 221.42 309.07 272.16
  Q 310.39 273.77 310.91 274.53
  Q 312.16 276.35 310.58 277.89
  Q 263.67 323.54 217.66 368.91
  Q 215.37 371.17 213.30 369.90
  Z"
/>
<path fill="#0b0b0a" d="
  M 435.50 255.04
  L 370.54 317.75
  L 370.49 317.27
  A 1.12 0.67 -31.9 0 1 370.90 316.48
  C 375.26 312.56 377.56 308.45 381.64 304.93
  C 384.11 302.80 387.64 296.17 390.40 295.25
  Q 390.97 295.06 391.24 294.78
  Q 397.40 288.33 404.14 282.49
  Q 406.71 280.26 409.59 276.79
  Q 414.19 271.24 420.04 266.98
  C 421.18 266.15 423.12 263.45 424.24 263.27
  Q 426.64 262.90 428.30 261.13
  Q 431.88 257.32 435.50 255.04
  Z"
/>
</svg>
