<?xml version="1.0" encoding="UTF-8" standalone="no"?>
<!DOCTYPE svg PUBLIC "-//W3C//DTD SVG 1.1//EN" "http://www.w3.org/Graphics/SVG/1.1/DTD/svg11.dtd">
<svg xmlns="http://www.w3.org/2000/svg" version="1.1" viewBox="0 0 664 376">
<g stroke-width="2.00" fill="none" stroke-linecap="butt">
<path stroke="#854c2d" vector-effect="non-scaling-stroke" d="
  M 488.74 251.35
  Q 489.72 252.26 491.13 250.87
  Q 522.10 220.47 554.08 189.44
  A 1.47 1.47 -39.7 0 0 554.26 187.53
  Q 553.49 186.42 552.06 184.69
  Q 524.49 151.50 496.67 117.69
  A 0.95 0.95 -41.2 0 0 495.29 117.60
  L 458.85 151.60"
/>
<path stroke="#39353b" stroke-opacity="0.996" vector-effect="non-scaling-stroke" d="
  M 96.14 208.70
  Q 95.03 224.14 95.72 239.51
  A 0.71 0.54 -88.9 0 0 96.21 240.18
  Q 96.72 240.23 96.96 239.50"
/>
<path stroke="#39353b" stroke-opacity="0.996" vector-effect="non-scaling-stroke" d="
  M 71.02 351.65
  L 49.34 351.69"
/>
<path stroke="#39353b" stroke-opacity="0.996" vector-effect="non-scaling-stroke" d="
  M 141.50 351.21
  L 141.75 185.54"
/>
<path stroke="#39353b" stroke-opacity="0.996" vector-effect="non-scaling-stroke" d="
  M 305.12 262.95
  Q 304.30 256.69 303.55 262.35
  A 0.69 0.43 -78.4 0 0 303.80 263.02
  Q 303.99 263.09 304.25 263.04"
/>
<path stroke="#39353b" stroke-opacity="0.996" vector-effect="non-scaling-stroke" d="
  M 243.25 261.25
  Q 244.47 259.97 243.48 259.10
  Q 243.04 258.73 243.00 259.32
  Q 242.92 260.30 243.25 261.25"
/>
<path stroke="#4c4d53" vector-effect="non-scaling-stroke" d="
  M 134.50 327.21
  Q 121.24 328.06 107.97 327.05"
/>
<path stroke="#39353b" stroke-opacity="0.996" vector-effect="non-scaling-stroke" d="
  M 209.00 351.05
  Q 207.69 340.19 208.40 328.35
  A 0.79 0.78 2.1 0 0 207.62 327.52
  L 183.59 327.38
  Q 181.36 327.37 181.47 329.57
  Q 182.00 340.18 181.50 350.57"
/>
</g>
<path fill="#fff" d="
  M 488.74 251.35
  Q 489.72 252.26 491.13 250.87
  Q 522.10 220.47 554.08 189.44
  A 1.47 1.47 -39.7 0 0 554.26 187.53
  Q 553.49 186.42 552.06 184.69
  Q 524.49 151.50 496.67 117.69
  A 0.95 0.95 -41.2 0 0 495.29 117.60
  L 458.85 151.60
  L 411.76 151.71
  Q 409.80 151.71 408.36 149.94
  L 401.81 141.85
  A 2.01 1.83 49.3 0 1 401.88 139.23
  L 530.45 20.50
  A 1.30 1.30 -40.9 0 1 532.34 20.63
  L 648.63 163.20
  A 0.60 0.60 48.0 0 1 648.59 164.00
  Q 647.05 165.55 645.27 167.27
  Q 592.32 218.43 539.30 269.52
  C 536.66 272.07 535.40 271.65 535.42 276.24
  Q 535.59 313.03 535.46 349.83
  A 0.42 0.41 90.0 0 1 535.05 350.25
  L 355.81 350.25
  A 0.31 0.31 0.0 0 1 355.50 349.94
  L 355.50 183.31
  A 0.61 0.61 84.9 0 1 356.00 182.71
  Q 358.41 182.26 360.75 182.26
  Q 378.62 182.25 396.77 182.25
  A 1.53 1.52 89.6 0 1 398.29 183.76
  Q 398.67 210.12 398.45 237.16
  C 398.43 240.13 397.95 245.68 398.49 249.75
  A 2.00 1.99 86.2 0 0 400.46 251.49
  L 488.74 251.35
  Z"
/>
<path fill="#f2813d" d="
  M 488.74 251.35
  Q 488.25 249.32 486.08 246.67
  C 468.02 224.52 450.50 201.56 431.72 180.04
  A 1.84 1.83 48.6 0 1 431.88 177.46
  Q 446.75 164.15 458.85 151.60
  L 495.29 117.60
  A 0.95 0.95 -41.2 0 1 496.67 117.69
  Q 524.49 151.50 552.06 184.69
  Q 553.49 186.42 554.26 187.53
  A 1.47 1.47 -39.7 0 1 554.08 189.44
  Q 522.10 220.47 491.13 250.87
  Q 489.72 252.26 488.74 251.35
  Z"
/>
<path fill="#fff" d="
  M 96.14 208.70
  Q 95.03 224.14 95.72 239.51
  A 0.71 0.54 -88.9 0 0 96.21 240.18
  Q 96.72 240.23 96.96 239.50
  Q 97.27 240.71 96.54 241.62
  A 1.14 0.93 15.6 0 1 95.70 241.99
  L 66.21 241.99
  A 1.02 1.01 -89.4 0 1 65.20 240.95
  Q 65.49 227.44 65.54 213.94
  C 65.56 209.20 63.50 204.01 57.80 206.97
  C 53.31 209.29 54.41 217.15 54.55 222.69
  C 54.80 231.94 57.62 239.68 64.02 246.00
  Q 80.09 261.85 91.19 275.33
  C 101.36 287.68 99.61 302.10 99.48 319.35
  C 99.34 337.59 89.72 350.43 71.02 351.65
  L 49.34 351.69
  Q 32.54 350.99 24.73 337.77
  C 20.09 329.92 21.77 318.73 21.60 310.21
  Q 21.36 298.02 21.55 285.85
  A 0.69 0.69 -89.1 0 1 22.24 285.18
  L 51.12 285.27
  A 1.42 1.42 0.2 0 1 52.53 286.69
  Q 52.43 304.16 52.57 322.06
  C 52.64 330.68 64.73 331.19 65.09 322.68
  Q 65.52 312.39 64.97 302.12
  C 64.63 295.60 60.34 289.22 56.07 284.68
  Q 44.24 272.07 32.55 259.32
  C 27.74 254.07 22.81 247.40 22.03 240.26
  Q 21.06 231.37 21.34 221.02
  C 21.67 209.39 22.01 200.50 29.92 193.20
  C 46.24 178.15 94.27 178.24 96.14 208.70
  Z"
/>
<path fill="#fff" d="
  M 141.50 351.21
  L 141.75 185.54
  L 174.05 185.36
  A 1.17 1.15 89.8 0 1 175.21 186.53
  L 175.01 350.17
  A 1.06 1.04 -0.0 0 1 173.95 351.21
  L 141.50 351.21
  Z"
/>
<path fill="#fff" d="
  M 305.12 262.95
  Q 304.30 256.69 303.55 262.35
  A 0.69 0.43 -78.4 0 0 303.80 263.02
  Q 303.99 263.09 304.25 263.04
  L 287.50 349.82
  A 1.49 1.48 5.6 0 1 286.03 351.02
  L 264.12 350.99
  A 0.74 0.73 -6.4 0 1 263.40 350.42
  L 244.15 262.98
  Q 244.11 262.79 243.73 262.11
  L 243.25 261.25
  Q 244.47 259.97 243.48 259.10
  Q 243.04 258.73 243.00 259.32
  Q 242.92 260.30 243.25 261.25
  C 242.84 261.25 243.00 341.78 242.99 349.70
  A 1.47 1.44 -0.0 0 1 241.52 351.14
  L 217.28 351.04
  A 1.29 1.27 0.2 0 1 216.00 349.77
  Q 216.01 278.07 215.99 205.74
  C 215.99 201.29 215.49 192.65 215.98 186.05
  A 0.60 0.58 -89.9 0 1 216.51 185.50
  C 223.10 184.97 230.68 185.50 236.15 185.39
  Q 247.95 185.15 259.76 185.27
  A 0.89 0.89 85.3 0 1 260.62 186.00
  Q 263.85 203.09 266.48 220.56
  Q 266.53 220.86 266.94 221.20
  A 1.21 1.01 21.0 0 1 267.38 221.99
  C 267.69 226.83 269.23 232.19 269.84 236.01
  C 270.33 239.06 275.19 269.69 276.18 269.49
  A 0.86 0.61 -89.0 0 0 276.70 268.78
  Q 278.23 257.54 280.09 246.36
  C 280.76 242.29 281.26 235.36 282.77 229.90
  C 283.17 228.45 282.76 227.00 283.13 225.65
  C 284.51 220.66 285.09 214.18 285.68 210.65
  Q 287.67 198.57 289.20 186.43
  A 1.07 1.07 3.4 0 1 290.25 185.50
  L 334.07 185.17
  A 1.70 1.68 -0.9 0 1 335.78 186.81
  C 335.84 189.61 335.50 192.75 335.50 195.41
  Q 335.50 273.17 335.50 350.87
  A 0.30 0.29 -0.0 0 1 335.20 351.16
  L 306.64 351.04
  A 1.46 1.44 -1.0 0 1 305.19 349.66
  C 304.78 339.71 305.16 327.76 305.09 319.69
  Q 304.88 291.32 305.12 262.95
  Z"
/>
<path fill="#5b535b" fill-opacity="0.992" d="
  M 141.75 185.54
  L 141.50 351.21
  Q 140.25 351.39 140.25 350.25
  Q 140.25 268.38 140.25 186.50
  A 1.19 0.69 80.5 0 1 140.58 185.62
  Q 141.03 185.29 141.75 185.54
  Z"
/>
<path fill="#5b535b" fill-opacity="0.992" d="
  M 96.14 208.70
  Q 97.09 224.10 96.96 239.50
  Q 96.72 240.23 96.21 240.18
  A 0.71 0.54 -88.9 0 1 95.72 239.51
  Q 95.03 224.14 96.14 208.70
  Z"
/>
<path fill="#5b535b" fill-opacity="0.992" d="
  M 243.25 261.25
  Q 242.92 260.30 243.00 259.32
  Q 243.04 258.73 243.48 259.10
  Q 244.47 259.97 243.25 261.25
  Z"
/>
<path fill="#5b535b" fill-opacity="0.992" d="
  M 305.12 262.95
  L 304.25 263.04
  Q 303.99 263.09 303.80 263.02
  A 0.69 0.43 -78.4 0 1 303.55 262.35
  Q 304.30 256.69 305.12 262.95
  Z"
/>
<path fill="#81838b" fill-opacity="0.996" d="
  M 134.50 327.21
  Q 121.24 328.06 107.97 327.05
  Q 121.29 325.55 134.50 327.21
  Z"
/>
<path fill="#5b535b" fill-opacity="0.992" d="
  M 209.00 351.05
  Q 207.69 340.19 208.40 328.35
  A 0.79 0.78 2.1 0 0 207.62 327.52
  L 183.59 327.38
  Q 181.36 327.37 181.47 329.57
  Q 182.00 340.18 181.50 350.57
  C 180.25 349.94 180.82 349.22 180.79 348.23
  Q 180.57 338.23 181.00 328.23
  A 1.63 1.63 -89.8 0 1 182.56 326.68
  Q 193.89 326.28 205.75 326.61
  C 208.11 326.68 209.60 326.47 209.74 329.48
  Q 210.25 340.88 209.00 351.05
  Z"
/>
<path fill="#fff" d="
  M 107.97 327.05
  Q 121.24 328.06 134.50 327.21
  L 134.46 350.71
  A 0.51 0.50 -90.0 0 1 133.96 351.22
  L 107.31 351.22
  A 1.32 1.31 89.8 0 1 106.00 349.91
  Q 105.98 338.90 106.03 327.81
  Q 106.04 325.93 107.97 327.05
  Z"
/>
<path fill="#fff" d="
  M 209.00 351.05
  C 202.28 351.21 183.39 352.09 181.50 350.57
  Q 182.00 340.18 181.47 329.57
  Q 181.36 327.37 183.59 327.38
  L 207.62 327.52
  A 0.79 0.78 2.1 0 1 208.40 328.35
  Q 207.69 340.19 209.00 351.05
  Z"
/>
<path fill="#5b535b" fill-opacity="0.992" d="
  M 71.02 351.65
  Q 60.14 354.57 49.34 351.69
  L 71.02 351.65
  Z"
/>
</svg>
